<svg xmlns="http://www.w3.org/2000/svg" xmlns:xlink="http://www.w3.org/1999/xlink" version="1.1" x="0px" y="0px" viewBox="0 0 91 113.75" enable-background="new 0 0 91 91" xml:space="preserve"><g><path d="M40.65,45.59l1.267,0.492l-0.01,0.027l6.791,2.613c1.168,0.77,1.861,1.617,1.861,2.281v3.258   c0,1.697-1.381,3.076-3.078,3.076h-3.838c-1.699,0-3.081-1.379-3.081-3.076V52.74h-3.4v1.521c0,3.57,2.908,6.477,6.481,6.477h0.508   v3.723h3.4v-3.725c3.539-0.039,6.408-2.928,6.408-6.475v-3.258c0-1.943-1.236-3.756-3.574-5.24l-0.941-0.367l0.014-0.035   l-7.118-2.729c-0.843-0.557-1.781-1.365-1.781-2.207v-3.252c0-1.699,1.382-3.082,3.081-3.082h3.837   c1.699,0,3.082,1.383,3.082,3.082v1.518h3.4v-1.518c0-3.549-2.869-6.439-6.408-6.479v-3.441h-3.4v3.438h-0.511   c-3.574,0-6.481,2.908-6.481,6.482v3.252C37.158,42.377,38.333,44.113,40.65,45.59z"/><path d="M45.561,71.51c13.854,0,25.123-11.27,25.123-25.121c0-13.854-11.27-25.123-25.123-25.123   c-13.853,0-25.124,11.27-25.124,25.123C20.437,60.24,31.708,71.51,45.561,71.51z M45.561,24.666   c11.979,0,21.723,9.744,21.723,21.723c0,11.977-9.744,21.721-21.723,21.721c-11.978,0-21.724-9.744-21.724-21.721   C23.837,34.41,33.583,24.666,45.561,24.666z"/></g><text x="0" y="106" fill="#000000" font-size="5px" font-weight="bold" font-family="'Helvetica Neue', Helvetica, Arial-Unicode, Arial, Sans-serif">Created by Korawan M.</text><text x="0" y="111" fill="#000000" font-size="5px" font-weight="bold" font-family="'Helvetica Neue', Helvetica, Arial-Unicode, Arial, Sans-serif">from the Noun Project</text></svg>