<svg xmlns="http://www.w3.org/2000/svg" xmlns:xlink="http://www.w3.org/1999/xlink" version="1.1" x="0px" y="0px" viewBox="-289 381 32 40" enable-background="new -289 381 32 32" xml:space="preserve"><g display="none"><g display="inline"><path fill="#000000" d="M-258,385v24h-30v-24H-258 M-257,384h-32v26h32V384L-257,384z"/></g><g display="inline"><path fill="#000000" d="M-280,390.17v4h-4v-4H-280 M-279,389.17h-6v6h6V389.17L-279,389.17z"/></g><g display="inline"><path fill="#000000" d="M-271,390.17v4h-4v-4H-271 M-270,389.17h-6v6h6V389.17L-270,389.17z"/></g><g display="inline"><path fill="#000000" d="M-262,390.17v4h-4v-4H-262 M-261,389.17h-6v6h6V389.17L-261,389.17z"/></g><g display="inline"><path fill="#000000" d="M-280,399.17v4h-4v-4H-280 M-279,398.17h-6v6h6V398.17L-279,398.17z"/></g><g display="inline"><path fill="#000000" d="M-271,399.17v4h-4v-4H-271 M-270,398.17h-6v6h6V398.17L-270,398.17z"/></g><g display="inline"><path fill="#000000" d="M-262,399.17v4h-4v-4H-262 M-261,398.17h-6v6h6V398.17L-261,398.17z"/></g></g><g display="none"><path display="inline" fill="#000000" d="M-257,384h-32v26h32V384L-257,384z"/><path display="inline" fill="#000000" d="M-271,390.17v4h-4v-4H-271 M-270,389.17h-6v6h6V389.17L-270,389.17z"/><path display="inline" fill="#000000" d="M-280,399.17v4h-4v-4H-280 M-279,398.17h-6v6h6V398.17L-279,398.17z"/><path display="inline" fill="#000000" d="M-262,399.17v4h-4v-4H-262 M-261,398.17h-6v6h6V398.17L-261,398.17z"/><path display="inline" fill="#000000" d="M-280,390.17v4h-4v-4H-280 M-279,389.17h-6v6h6V389.17L-279,389.17z"/><path display="inline" fill="#000000" d="M-262,390.17v4h-4v-4H-262 M-261,389.17h-6v6h6V389.17L-261,389.17z"/><path display="inline" fill="#000000" d="M-271,399.17v4h-4v-4H-271 M-270,398.17h-6v6h6V398.17L-270,398.17z"/></g><g><g><rect x="-275" y="390.17" width="4" height="4"/><rect x="-284" y="399.17" width="4" height="4"/><rect x="-275" y="399.17" width="4" height="4"/><rect x="-266" y="399.17" width="4" height="4"/><rect x="-284" y="390.17" width="4" height="4"/><rect x="-266" y="390.17" width="4" height="4"/><path d="M-289,384v26h32v-26H-289z M-279,404.17h-6v-6h6V404.17z M-279,395.17h-6v-6h6V395.17z M-270,404.17h-6v-6h6V404.17z     M-270,395.17h-6v-6h6V395.17z M-261,404.17h-6v-6h6V404.17z M-261,395.17h-6v-6h6V395.17z"/></g></g><text x="-289" y="428" fill="#000000" font-size="5px" font-weight="bold" font-family="'Helvetica Neue', Helvetica, Arial-Unicode, Arial, Sans-serif">Created by Alfredo Hernandez</text><text x="-289" y="433" fill="#000000" font-size="5px" font-weight="bold" font-family="'Helvetica Neue', Helvetica, Arial-Unicode, Arial, Sans-serif">from the Noun Project</text></svg>