<svg xmlns="http://www.w3.org/2000/svg" xmlns:xlink="http://www.w3.org/1999/xlink" version="1.1" x="0px" y="0px" viewBox="0 0 100 125" enable-background="new 0 0 100 100" xml:space="preserve"><path fill="#000000" d="M71.586,33.446H29.28c-2.193,0-3.978,1.784-3.978,3.977v26.849c0,2.193,1.785,3.978,3.978,3.978h42.306  c2.193,0,3.978-1.784,3.978-3.978V37.423C75.563,35.23,73.779,33.446,71.586,33.446z M50.116,56.535  c-0.064,0.063-0.116,0.107-0.154,0.136c-0.033-0.023-0.073-0.057-0.12-0.103L31.161,36.836h38.147L50.116,56.535z M41.178,52.348  L28.692,63.07V39.159L41.178,52.348z M43.512,54.812l3.901,4.121c0.773,0.771,1.658,1.157,2.545,1.157  c0.892,0,1.787-0.391,2.57-1.175l4.56-4.68l12.084,10.623H31.813L43.512,54.812z M72.174,62.983l-12.717-11.18l12.717-13.051V62.983  z"/><text x="0" y="115" fill="#000000" font-size="5px" font-weight="bold" font-family="'Helvetica Neue', Helvetica, Arial-Unicode, Arial, Sans-serif">Created by Karen Tyler</text><text x="0" y="120" fill="#000000" font-size="5px" font-weight="bold" font-family="'Helvetica Neue', Helvetica, Arial-Unicode, Arial, Sans-serif">from the Noun Project</text></svg>