<svg xmlns="http://www.w3.org/2000/svg" xmlns:xlink="http://www.w3.org/1999/xlink" xmlns:a="http://ns.adobe.com/AdobeSVGViewerExtensions/3.0/" version="1.1" x="0px" y="0px" viewBox="0 -2 32 40" overflow="visible" enable-background="new 0 -2 32 32" xml:space="preserve"><path d="M11,0H1C0.447,0,0,0.447,0,1v10c0,0.553,0.447,1,1,1h10c0.553,0,1-0.447,1-1V1C12,0.447,11.553,0,11,0z"/><path d="M11,16H1c-0.553,0-1,0.447-1,1v10c0,0.553,0.447,1,1,1h10c0.553,0,1-0.447,1-1V17C12,16.447,11.553,16,11,16z"/><path d="M31,0H17c-0.553,0-1,0.447-1,1v2c0,0.553,0.447,1,1,1h14c0.553,0,1-0.447,1-1V1C32,0.447,31.553,0,31,0z"/><path d="M31,8H17c-0.553,0-1,0.447-1,1v2c0,0.553,0.447,1,1,1h14c0.553,0,1-0.447,1-1V9C32,8.447,31.553,8,31,8z"/><path d="M31,16H17c-0.553,0-1,0.447-1,1v2c0,0.553,0.447,1,1,1h14c0.553,0,1-0.447,1-1v-2C32,16.447,31.553,16,31,16z"/><path d="M31,24H17c-0.553,0-1,0.447-1,1v2c0,0.553,0.447,1,1,1h14c0.553,0,1-0.447,1-1v-2C32,24.447,31.553,24,31,24z"/><text x="0" y="45" fill="#000000" font-size="5px" font-weight="bold" font-family="'Helvetica Neue', Helvetica, Arial-Unicode, Arial, Sans-serif">Created by Shmidt Sergey</text><text x="0" y="50" fill="#000000" font-size="5px" font-weight="bold" font-family="'Helvetica Neue', Helvetica, Arial-Unicode, Arial, Sans-serif">from the Noun Project</text></svg>