<svg xmlns="http://www.w3.org/2000/svg" xmlns:xlink="http://www.w3.org/1999/xlink" version="1.1" x="0px" y="0px" viewBox="0 0 100 125" enable-background="new 0 0 100 100" xml:space="preserve"><path d="M82.8,35H17.2c-0.5,0-1-0.4-1-1v-5.5c0-0.5,0.4-1,1-1h65.5c0.5,0,1,0.4,1,1V34C83.8,34.6,83.3,35,82.8,35z"/><path d="M82.8,53.8H17.2c-0.5,0-1-0.4-1-1v-5.5c0-0.5,0.4-1,1-1h65.5c0.5,0,1,0.4,1,1v5.5C83.8,53.3,83.3,53.8,82.8,53.8z"/><path d="M82.8,72.5H17.2c-0.5,0-1-0.4-1-1V66c0-0.5,0.4-1,1-1h65.5c0.5,0,1,0.4,1,1v5.5C83.8,72.1,83.3,72.5,82.8,72.5z"/></svg>