<svg xmlns:dc="http://purl.org/dc/elements/1.1/" xmlns:cc="http://creativecommons.org/ns#" xmlns:rdf="http://www.w3.org/1999/02/22-rdf-syntax-ns#" xmlns:svg="http://www.w3.org/2000/svg" xmlns="http://www.w3.org/2000/svg" xmlns:sodipodi="http://sodipodi.sourceforge.net/DTD/sodipodi-0.dtd" xmlns:inkscape="http://www.inkscape.org/namespaces/inkscape" version="1.1" x="0px" y="0px" viewBox="0 0 100 125"><g transform="translate(0,-952.36218)"><path style="text-indent:0;text-transform:none;direction:ltr;block-progression:tb;baseline-shift:baseline;color:#000000;enable-background:accumulate;" d="m 28,994.36218 c -4.39459,0 -8,3.6054 -8,8.00002 0,4.3946 3.60541,8 8,8 4.39459,0 8,-3.6054 8,-8 0,-4.39462 -3.60541,-8.00002 -8,-8.00002 z m 22,0 c -4.39459,0 -8,3.6054 -8,8.00002 0,4.3946 3.60541,8 8,8 4.39459,0 8,-3.6054 8,-8 0,-4.39462 -3.60541,-8.00002 -8,-8.00002 z m 22,0 c -4.39459,0 -8,3.6054 -8,8.00002 0,4.3946 3.60541,8 8,8 4.39459,0 8,-3.6054 8,-8 0,-4.39462 -3.60541,-8.00002 -8,-8.00002 z m -44,4 c 2.23283,0 4,1.76722 4,4.00002 0,2.2328 -1.76717,4 -4,4 -2.23283,0 -4,-1.7672 -4,-4 0,-2.2328 1.76717,-4.00002 4,-4.00002 z m 22,0 c 2.23283,0 4,1.76722 4,4.00002 0,2.2328 -1.76717,4 -4,4 -2.23283,0 -4,-1.7672 -4,-4 0,-2.2328 1.76717,-4.00002 4,-4.00002 z m 22,0 c 2.23283,0 4,1.76722 4,4.00002 0,2.2328 -1.76717,4 -4,4 -2.23283,0 -4,-1.7672 -4,-4 0,-2.2328 1.76717,-4.00002 4,-4.00002 z" fill="#000000" fill-opacity="1" stroke="none" marker="none" visibility="visible" display="inline" overflow="visible"/></g><text x="0" y="115" fill="#000000" font-size="5px" font-weight="bold" font-family="'Helvetica Neue', Helvetica, Arial-Unicode, Arial, Sans-serif">Created by unlimicon</text><text x="0" y="120" fill="#000000" font-size="5px" font-weight="bold" font-family="'Helvetica Neue', Helvetica, Arial-Unicode, Arial, Sans-serif">from the Noun Project</text></svg>