<svg xmlns="http://www.w3.org/2000/svg" xmlns:xlink="http://www.w3.org/1999/xlink" version="1.1" x="0px" y="0px" viewBox="0 0 100 125" enable-background="new 0 0 100 100" xml:space="preserve"><g><path d="M35.729,61.36V28.709c0-0.829-0.671-1.5-1.5-1.5s-1.5,0.671-1.5,1.5V61.36c-1.827,0.626-3.149,2.34-3.149,4.38   s1.322,3.753,3.149,4.38v4.936c0,0.828,0.671,1.5,1.5,1.5s1.5-0.672,1.5-1.5v-4.935c1.827-0.626,3.149-2.34,3.149-4.38   S37.556,61.986,35.729,61.36z"/><path d="M70.878,37.799c0-2.04-1.322-3.753-3.149-4.38v-4.978c0-0.829-0.672-1.5-1.5-1.5s-1.5,0.671-1.5,1.5v4.978   c-1.827,0.626-3.149,2.34-3.149,4.38s1.322,3.753,3.149,4.38v32.608c0,0.828,0.672,1.5,1.5,1.5s1.5-0.672,1.5-1.5V42.178   C69.556,41.552,70.878,39.838,70.878,37.799z"/><path d="M51.729,47.502V28.441c0-0.829-0.671-1.5-1.5-1.5s-1.5,0.671-1.5,1.5v19.061c-1.827,0.626-3.149,2.34-3.149,4.38   s1.322,3.753,3.149,4.38v18.525c0,0.828,0.671,1.5,1.5,1.5s1.5-0.672,1.5-1.5V56.262c1.827-0.626,3.149-2.34,3.149-4.38   S53.556,48.129,51.729,47.502z"/></g><text x="0" y="115" fill="#000000" font-size="5px" font-weight="bold" font-family="'Helvetica Neue', Helvetica, Arial-Unicode, Arial, Sans-serif">Created by Elena Rimeikaite</text><text x="0" y="120" fill="#000000" font-size="5px" font-weight="bold" font-family="'Helvetica Neue', Helvetica, Arial-Unicode, Arial, Sans-serif">from the Noun Project</text></svg>