<svg xmlns="http://www.w3.org/2000/svg" xmlns:xlink="http://www.w3.org/1999/xlink" version="1.1" x="0px" y="0px" viewBox="0 0 100 125" style="enable-background:new 0 0 100 100;" xml:space="preserve"><g><path d="M93.678,28.507c-0.087-0.637-0.416-1.202-0.929-1.59l-12.263-9.316c-1.027-0.78-2.591-0.563-3.37,0.461l-5.013,6.598   c0,0.001-0.001,0.001-0.001,0.001s0,0.001-0.001,0.001L41.929,64.384c-0.071,0.094-0.119,0.201-0.151,0.313   c-0.011,0.04-0.012,0.079-0.018,0.119c-0.008,0.052-0.025,0.103-0.024,0.156l0.21,14.86c0.004,0.292,0.143,0.566,0.375,0.743   c0.167,0.127,0.369,0.193,0.575,0.193c0.081,0,0.162-0.011,0.242-0.031l14.373-3.784c0.04-0.011,0.073-0.035,0.11-0.05   c0.035-0.015,0.067-0.027,0.101-0.046c0.116-0.063,0.223-0.143,0.304-0.249l30.17-39.72c0.001-0.001,0.002-0.001,0.002-0.001   c0.001,0,0.001-0.001,0.001-0.002l5.012-6.598C93.599,29.775,93.765,29.143,93.678,28.507z M81.248,32.802L52.226,71.011   l-3.349-2.543l29.024-38.208L81.248,32.802z M57.086,74.703l-3.348-2.543l29.023-38.208l3.347,2.542L57.086,74.703z M48.613,77.331   l-4.854-3.688l-0.095-6.75l3.306,2.512c0.001,0.001,0.001,0.001,0.002,0.002s0.002,0.001,0.003,0.002l8.167,6.203L48.613,77.331z    M47.365,67.319l-3.348-2.544l29.025-38.208l3.347,2.542L47.365,67.319z M43.792,76.057l2.487,1.889l-2.451,0.646L43.792,76.057z    M91.696,29.137l-4.439,5.844l-8.961-6.807c-0.001-0.001-0.001-0.002-0.002-0.003c-0.001-0.001-0.002-0.001-0.003-0.001   l-4.101-3.115l4.439-5.844c0.143-0.188,0.362-0.359,0.708-0.097l12.263,9.316c0.107,0.082,0.177,0.2,0.194,0.333   C91.813,28.897,91.778,29.029,91.696,29.137z"/><path d="M70.215,64.655c-0.524,0-0.95,0.426-0.95,0.95v25.018c0,0.545-0.443,0.988-0.988,0.988H9.189   c-0.545,0-0.989-0.443-0.989-0.988V9.377c0-0.545,0.443-0.988,0.989-0.988h59.087c0.545,0,0.988,0.443,0.988,0.988v12.879   c0,0.525,0.426,0.95,0.95,0.95s0.95-0.425,0.95-0.95V9.377c0-1.593-1.296-2.889-2.889-2.889H9.189C7.596,6.488,6.3,7.784,6.3,9.377   v81.246c0,1.593,1.296,2.889,2.889,2.889h59.087c1.593,0,2.889-1.296,2.889-2.889V65.605   C71.165,65.081,70.739,64.655,70.215,64.655z"/><path d="M14.425,78.976c-0.525,0-0.95,0.426-0.95,0.95s0.425,0.95,0.95,0.95h23.47c0.525,0,0.95-0.426,0.95-0.95   s-0.425-0.95-0.95-0.95H14.425z"/><path d="M41.167,60.808c0-0.524-0.425-0.95-0.95-0.95H14.425c-0.525,0-0.95,0.426-0.95,0.95s0.425,0.95,0.95,0.95h25.792   C40.742,61.758,41.167,61.332,41.167,60.808z"/><path d="M55.809,41.689c0-0.525-0.426-0.95-0.95-0.95H14.425c-0.525,0-0.95,0.425-0.95,0.95s0.425,0.95,0.95,0.95h40.433   C55.383,42.64,55.809,42.214,55.809,41.689z"/><path d="M62.968,22.571c0-0.525-0.426-0.95-0.95-0.95H14.425c-0.525,0-0.95,0.425-0.95,0.95s0.425,0.95,0.95,0.95h47.592   C62.542,23.521,62.968,23.096,62.968,22.571z"/></g><text x="0" y="115" fill="#000000" font-size="5px" font-weight="bold" font-family="'Helvetica Neue', Helvetica, Arial-Unicode, Arial, Sans-serif">Created by Stock Image Folio</text><text x="0" y="120" fill="#000000" font-size="5px" font-weight="bold" font-family="'Helvetica Neue', Helvetica, Arial-Unicode, Arial, Sans-serif">from the Noun Project</text></svg>